<svg width="77" height="76" viewBox="0 0 77 76" fill="none" xmlns="http://www.w3.org/2000/svg">
<mask id="mask0_120_2078" style="mask-type:alpha" maskUnits="userSpaceOnUse" x="0" y="0" width="77" height="76">
<path d="M9.2791 25.1453L24.5437 66.4109C13.866 61.3047 6.51191 50.4984 6.51191 38C6.51191 33.4133 7.50449 29.0789 9.2791 25.1453ZM60.0961 36.4117C60.0961 32.5078 58.6824 29.8063 57.4643 27.6984C55.84 25.1008 54.3211 22.8891 54.3211 20.2914C54.3211 17.382 56.5469 14.6805 59.69 14.6805C59.8254 14.6805 59.9607 14.6953 60.1111 14.7102C54.4113 9.55937 46.8316 6.4125 38.5 6.4125C27.326 6.4125 17.4904 12.068 11.7605 20.6477C12.5125 20.6773 13.2193 20.6922 13.8209 20.6922C17.1596 20.6922 22.348 20.2914 22.348 20.2914C24.0775 20.1875 24.273 22.6961 22.5586 22.8891C22.5586 22.8891 20.8291 23.082 18.9041 23.1859L30.5594 57.3859L37.5676 36.6641L32.5896 23.1859C30.8602 23.082 29.2359 22.8891 29.2359 22.8891C27.5064 22.7852 27.717 20.1875 29.4314 20.2914C29.4314 20.2914 34.7102 20.6922 37.8533 20.6922C41.192 20.6922 46.3805 20.2914 46.3805 20.2914C48.11 20.1875 48.3055 22.6961 46.591 22.8891C46.591 22.8891 44.8615 23.082 42.9365 23.1859L54.5016 57.1336L57.6898 46.6094C59.0434 42.2453 60.0961 39.1133 60.0961 36.4117ZM39.0564 40.7609L29.4615 68.2961C32.334 69.1273 35.3568 69.5875 38.5 69.5875C42.2297 69.5875 45.7939 68.9492 49.1176 67.7914C49.0273 67.6578 48.9521 67.5094 48.892 67.3609L39.0564 40.7609ZM66.5779 22.8445C66.7133 23.8539 66.7885 24.9227 66.7885 26.0953C66.7885 29.3016 66.1869 32.8938 64.3521 37.4062L54.5768 65.2977C64.0965 59.8203 70.4881 49.6523 70.4881 38C70.4881 32.5078 69.0744 27.3422 66.5779 22.8445ZM75.7969 38C75.7969 58.3063 59.0584 74.8125 38.5 74.8125C17.9266 74.8125 1.20312 58.2914 1.20312 38C1.20312 17.6937 17.9266 1.1875 38.5 1.1875C59.0584 1.1875 75.7969 17.6937 75.7969 38ZM74.0824 38C74.0824 18.6289 58.1109 2.87969 38.5 2.87969C18.874 2.87969 2.91758 18.6289 2.91758 38C2.91758 57.3711 18.8891 73.1203 38.5 73.1203C58.126 73.1203 74.0824 57.3711 74.0824 38Z" fill="black"/>
</mask>
<g mask="url(#mask0_120_2078)">
<ellipse cx="38.047" cy="34.7952" rx="52.5412" ry="53.1084" fill="url(#paint0_linear_120_2078)"/>
</g>
<defs>
<linearGradient id="paint0_linear_120_2078" x1="7.24703" y1="-7.32528" x2="75.2415" y2="87.2138" gradientUnits="userSpaceOnUse">
<stop stop-color="#FF59DF"/>
<stop offset="1" stop-color="#0097B2"/>
</linearGradient>
</defs>
</svg>
