<svg width="60" height="62" viewBox="0 0 60 62" fill="none" xmlns="http://www.w3.org/2000/svg">
<mask id="mask0_120_2079" style="mask-type:alpha" maskUnits="userSpaceOnUse" x="0" y="0" width="60" height="62">
<path d="M0 0V61.8808H60V0H0ZM32.6518 48.2615C32.6518 54.2838 29.2232 57.0326 24.2277 57.0326C19.7143 57.0326 17.1027 54.6292 15.7634 51.7147L20.3571 48.8555C21.2411 50.4715 22.0446 51.839 23.9866 51.839C25.8348 51.839 27.0134 51.0931 27.0134 48.1786V28.4127H32.6518V48.2615ZM45.9911 57.0326C40.7545 57.0326 37.3661 54.4634 35.7188 51.0931L40.3125 48.3582C41.5179 50.3887 43.0982 51.8943 45.8705 51.8943C48.2009 51.8943 49.7009 50.6925 49.7009 49.0212C49.7009 47.0322 48.1741 46.3277 45.5893 45.1537L44.183 44.5321C40.1116 42.7503 37.4196 40.4988 37.4196 35.761C37.4196 31.3962 40.6473 28.0812 45.6696 28.0812C49.2589 28.0812 51.8304 29.3658 53.6786 32.7361L49.2857 35.6367C48.3214 33.8549 47.2768 33.1504 45.6562 33.1504C44.0089 33.1504 42.9643 34.2278 42.9643 35.6367C42.9643 37.3771 44.0089 38.0816 46.433 39.1728L47.8393 39.7943C52.6339 41.9077 55.3259 44.0763 55.3259 48.9383C55.3259 54.1595 51.3348 57.0326 45.9911 57.0326Z" fill="black"/>
</mask>
<g mask="url(#mask0_120_2079)">
<circle cx="32.4" cy="22.7999" r="69.6" fill="url(#paint0_linear_120_2079)"/>
</g>
<defs>
<linearGradient id="paint0_linear_120_2079" x1="-8.39996" y1="-32.4" x2="80.4" y2="92.3999" gradientUnits="userSpaceOnUse">
<stop stop-color="#FF59DF"/>
<stop offset="1" stop-color="#0097B2"/>
</linearGradient>
</defs>
</svg>
