<svg width="62" height="62" viewBox="0 0 62 62" fill="none" xmlns="http://www.w3.org/2000/svg">
<mask id="mask0_120_2087" style="mask-type:alpha" maskUnits="userSpaceOnUse" x="0" y="0" width="62" height="62">
<path d="M40.9717 11.3409V50.0909C40.9717 54.4051 43.9167 56.8334 47.1459 56.8334C50.0909 56.8334 53.3201 54.7926 53.3201 50.0909V11.6251C53.3201 7.64675 50.3751 5.16675 47.1459 5.16675C43.9167 5.16675 40.9717 7.90508 40.9717 11.3409ZM24.8259 31.0001V50.0909C24.8259 54.4309 27.8226 56.8334 31.0001 56.8334C33.9451 56.8334 37.1742 54.7926 37.1742 50.0909V31.2842C37.1742 27.3059 34.2292 24.8259 31.0001 24.8259C27.7709 24.8259 24.8259 27.5642 24.8259 31.0001ZM14.8542 44.5109C18.2642 44.5109 21.0284 47.2751 21.0284 50.6593C21.0284 54.0693 18.2642 56.8334 14.8542 56.8334C11.4442 56.8334 8.68005 54.0693 8.68005 50.6593C8.68005 47.2751 11.4442 44.5109 14.8542 44.5109Z" fill="black"/>
</mask>
<g mask="url(#mask0_120_2087)">
<circle cx="31" cy="30.9999" r="74.9167" fill="url(#paint0_linear_120_2087)"/>
</g>
<defs>
<linearGradient id="paint0_linear_120_2087" x1="-12.9166" y1="-28.4167" x2="82.6667" y2="105.917" gradientUnits="userSpaceOnUse">
<stop stop-color="#FF59DF"/>
<stop offset="1" stop-color="#0097B2"/>
</linearGradient>
</defs>
</svg>
