<svg width="54" height="61" viewBox="0 0 54 61" fill="none" xmlns="http://www.w3.org/2000/svg">
<mask id="mask0_120_2084" style="mask-type:alpha" maskUnits="userSpaceOnUse" x="0" y="0" width="54" height="61">
<g clip-path="url(#clip0_120_2084)">
<path d="M53.0117 23.8876C52.0836 20.2062 50.3238 17.4302 46.5751 17.4302H41.7416V23.0775C41.7416 27.4618 37.9809 31.1552 33.6898 31.1552H20.8166C17.297 31.1552 14.38 34.1337 14.38 37.6245V49.753C14.38 53.2081 17.4175 55.2335 20.8166 56.2224C24.8907 57.4019 28.8081 57.6163 33.6898 56.2224C36.9322 55.2931 40.1264 53.4226 40.1264 49.753V44.904H27.2653V43.2837H46.5751C50.3238 43.2837 51.7099 40.6984 53.0117 36.8263C54.3617 32.8351 54.3014 28.9987 53.0117 23.8876ZM34.4974 48.1327C35.8354 48.1327 36.9202 49.2169 36.9202 50.5513C36.9202 51.8976 35.8354 52.9818 34.4974 52.9818C33.1715 52.9818 32.0746 51.8857 32.0746 50.5513C32.0867 49.205 33.1715 48.1327 34.4974 48.1327ZM20.226 29.5587H33.0992C36.6791 29.5587 39.5358 26.6398 39.5358 23.0894V10.9489C39.5358 7.49386 36.5947 4.9085 33.0992 4.32471C28.784 3.62178 24.0952 3.65753 20.226 4.33663C14.7778 5.28975 13.7894 7.2794 13.7894 10.9608V15.8099H26.6746V17.4302H8.95589C5.20723 17.4302 1.92866 19.6581 0.904108 23.8876C-0.277142 28.7366 -0.325356 31.7628 0.904108 36.8263C1.82018 40.5911 4.00188 43.2837 7.75054 43.2837H12.1742V37.4696C12.1742 33.264 15.8505 29.5587 20.226 29.5587ZM19.4184 12.5692C18.0805 12.5692 16.9956 11.4851 16.9956 10.1507C17.0077 8.8044 18.0805 7.72022 19.4184 7.72022C20.7443 7.72022 21.8412 8.81632 21.8412 10.1507C21.8412 11.4851 20.7563 12.5692 19.4184 12.5692Z" fill="black"/>
</g>
</mask>
<g mask="url(#mask0_120_2084)">
<circle cx="27" cy="34" r="58" fill="url(#paint0_linear_120_2084)"/>
</g>
<defs>
<linearGradient id="paint0_linear_120_2084" x1="-7" y1="-12" x2="67" y2="92" gradientUnits="userSpaceOnUse">
<stop stop-color="#FF59DF"/>
<stop offset="1" stop-color="#0097B2"/>
</linearGradient>
<clipPath id="clip0_120_2084">
<rect width="54" height="61" fill="white"/>
</clipPath>
</defs>
</svg>
