<svg width="44" height="58" viewBox="0 0 44 58" fill="none" xmlns="http://www.w3.org/2000/svg">
<mask id="mask0_120_2083" style="mask-type:alpha" maskUnits="userSpaceOnUse" x="0" y="0" width="44" height="58">
<path d="M1.60425 10.8523C1.60425 4.85977 6.51987 0 12.5813 0H31.4188C37.4803 0 42.3959 4.85977 42.3959 10.8523C42.3959 14.6473 40.4251 17.9891 37.4345 19.9262C40.4251 21.8633 42.3959 25.2051 42.3959 29C42.3959 34.9926 37.4803 39.8523 31.4188 39.8523H31.1782C28.3365 39.8523 25.747 38.7875 23.799 37.0316V47.0344C23.799 53.1063 18.7574 58 12.6386 58C6.58862 58 1.60425 53.1516 1.60425 47.1477C1.60425 43.3527 3.57508 40.0109 6.55425 38.0738C3.57508 36.1367 1.60425 32.7949 1.60425 29C1.60425 25.2051 3.57508 21.8633 6.55425 19.9262C3.57508 17.9891 1.60425 14.6473 1.60425 10.8523ZM20.2011 21.7047H12.5813C8.50217 21.7047 5.20216 24.9672 5.20216 29C5.20216 33.0102 8.47925 36.2727 12.5355 36.2953C12.547 36.2953 12.5699 36.2953 12.5813 36.2953H20.2011V21.7047ZM23.799 29C23.799 33.0328 27.099 36.2953 31.1782 36.2953H31.4188C35.4865 36.2953 38.798 33.0328 38.798 29C38.798 24.9672 35.4865 21.7047 31.4188 21.7047H31.1782C27.099 21.7047 23.799 24.9672 23.799 29ZM12.5813 39.8523C12.5699 39.8523 12.547 39.8523 12.5355 39.8523C8.47925 39.875 5.20216 43.1375 5.20216 47.1477C5.20216 51.1691 8.548 54.443 12.6386 54.443C16.798 54.443 20.2011 51.1125 20.2011 47.0344V39.8523H12.5813ZM12.5813 3.55703C8.50217 3.55703 5.20216 6.81953 5.20216 10.8523C5.20216 14.8852 8.50217 18.1477 12.5813 18.1477H20.2011V3.55703H12.5813ZM23.799 18.1477H31.4188C35.4865 18.1477 38.798 14.8852 38.798 10.8523C38.798 6.81953 35.4865 3.55703 31.4188 3.55703H23.799V18.1477Z" fill="black"/>
</mask>
<g mask="url(#mask0_120_2083)">
<circle cx="23" cy="29" r="58" fill="url(#paint0_linear_120_2083)"/>
</g>
<defs>
<linearGradient id="paint0_linear_120_2083" x1="-11" y1="-17" x2="63" y2="87" gradientUnits="userSpaceOnUse">
<stop stop-color="#FF59DF"/>
<stop offset="1" stop-color="#0097B2"/>
</linearGradient>
</defs>
</svg>
