<svg width="46" height="46" viewBox="0 0 46 46" fill="none" xmlns="http://www.w3.org/2000/svg">
<mask id="mask0_120_2086" style="mask-type:alpha" maskUnits="userSpaceOnUse" x="0" y="0" width="46" height="46">
<g clip-path="url(#clip0_120_2086)">
<path d="M22.333 0.337891V4.55983H18.561V5.66814H22.333V9.89008H23.6742V5.66814H27.4462V4.55983H23.6742V0.337891H22.333ZM33.8948 4.67339V10.8949H28.2267V12.6673H33.8948V18.7781H35.8944L35.9073 15.7465L35.9533 12.7291L38.7607 12.6831L41.5538 12.6673V10.8949H35.8944V4.67339H33.8948ZM10.1142 4.78408V10.9021H4.38725V12.6673H10.1142V18.7853H12.0017V12.6673H17.7732V10.8949H12.0017V4.78408H10.1142ZM21.7796 14.8854V21.7725H15.4474V24.0494H21.7796V30.9451H24.2362V24.0494H30.5771V21.7725H24.2362V14.8854H21.7796ZM40.4153 17.8553V22.1088H36.5513V23.6671H40.4153V28.0011H42.1159V23.6671H46.0014V22.1088H42.1159V17.8553H40.4153ZM3.78206 18.1025V22.2727H0V23.463H3.78206V27.6719H5.06287V23.463H8.89669V22.2727H5.0025V18.1025H3.78206ZM33.8948 26.7663V33.0036H28.106V34.7789H33.8948V40.9386H35.9461V34.7789H41.6659V33.0036H35.9461V26.7663H33.8948ZM10.0036 26.7821V33.0036H4.3355V34.7789H10.0036V40.8955H12.1138V34.7789H17.7732V33.0036H12.1138V26.775H11.0601L10.0036 26.7821ZM22.1087 35.5566V39.7786H18.3353V41.3268H22.1087V45.6623H23.8912L23.9142 43.5218L23.943 41.3268H27.7251V39.7786H23.8912V35.5566H22.1087Z" fill="black"/>
</g>
</mask>
<g mask="url(#mask0_120_2086)">
<circle cx="22" cy="23" r="58" fill="url(#paint0_linear_120_2086)"/>
</g>
<defs>
<linearGradient id="paint0_linear_120_2086" x1="-12" y1="-23" x2="62" y2="81" gradientUnits="userSpaceOnUse">
<stop stop-color="#FF59DF"/>
<stop offset="1" stop-color="#0097B2"/>
</linearGradient>
<clipPath id="clip0_120_2086">
<rect width="46" height="46" fill="white"/>
</clipPath>
</defs>
</svg>
